<svg viewBox="0 0 400 400" xmlns="http://www.w3.org/2000/svg">
  <g opacity="0.03" fill="#000000">
    <!-- Hexagonal outer shape -->
    <polygon points="200,40 320,110 320,250 200,320 80,250 80,110" stroke="none" fill="#000000" stroke-width="0"/>
    
    <!-- Inner geometric pattern -->
    <polygon points="200,80 280,120 280,240 200,280 120,240 120,120" fill="none" stroke="#000000" stroke-width="8"/>
    
    <!-- Diamond/crystal internal structure -->
    <polygon points="200,120 240,160 200,200 160,160" fill="#000000"/>
    <polygon points="200,120 280,120 240,160" fill="none" stroke="#000000" stroke-width="6"/>
    <polygon points="240,160 280,240 200,200" fill="none" stroke="#000000" stroke-width="6"/>
    <polygon points="200,200 120,240 160,160" fill="none" stroke="#000000" stroke-width="6"/>
    <polygon points="160,160 120,120 200,120" fill="none" stroke="#000000" stroke-width="6"/>
    
    <!-- Center connecting lines -->
    <line x1="200" y1="120" x2="200" y2="280" stroke="#000000" stroke-width="4"/>
    <line x1="120" y1="180" x2="280" y2="180" stroke="#000000" stroke-width="4"/>
  </g>
</svg>